<?xml version="1.0" encoding="UTF-8"?><svg id="Camada_1" xmlns="http://www.w3.org/2000/svg" viewBox="0 0 50 50"><defs><style>.cls-1{fill:#efefef;}</style></defs><path class="cls-1" d="M0,24.82c0-4.58,0-9.15,0-13.73,0-1.13,.33-1.46,1.45-1.46,4.17,0,8.34,0,12.51,0,4.19,0,7.66,2.85,8.42,6.96,.36,1.96,.06,3.85-.96,5.58-.19,.32-.14,.45,.13,.67,3.14,2.65,4.34,6.03,3.29,9.99-1.04,3.91-3.77,6.19-7.71,7.02-.59,.12-1.21,.16-1.82,.16-4.62,0-9.24,0-13.85,0-1.12,0-1.46-.34-1.46-1.46,0-4.58,0-9.15,0-13.73Zm11.02,9.61s0,0,0,0c1.55,0,3.09,.03,4.64,0,2.25-.05,3.99-1.83,3.97-4.01-.01-2.18-1.8-3.94-4.04-3.95-3.15-.01-6.3,0-9.46-.01-.45,0-.53,.14-.52,.55,.02,2.3,.03,4.6,0,6.89,0,.49,.16,.56,.59,.55,1.61-.02,3.21,0,4.82,0Zm-.91-13.69c1.3,0,2.6,.01,3.9,0,1.59-.02,2.82-1.24,2.81-2.76-.01-1.49-1.24-2.72-2.79-2.73-2.64-.02-5.29,0-7.93-.01-.35,0-.5,.06-.49,.46,.02,1.52,.02,3.05,0,4.57,0,.37,.09,.49,.47,.48,1.34-.02,2.68,0,4.03,0Z"/><path class="cls-1" d="M40.93,29.8c-2.54,0-5.08,0-7.62,0q-.72,0-.48,.7c1.15,3.42,4.8,5.16,7.9,3.78,.39-.17,.8-.36,1.08-.67,.46-.51,1.01-.58,1.65-.56,1.52,.03,3.05,0,4.57,.01,.8,0,.94,.27,.56,.97-1.87,3.48-4.72,5.63-8.65,6.22-5.39,.82-10.58-2.5-12.44-7.77-2.17-6.15,.99-13.09,6.96-15.28,6.37-2.34,13.33,1.41,15.08,8.12,.29,1.11,.34,2.24,.45,3.37,.05,.49-.38,.99-.89,1.08-.22,.04-.45,.03-.67,.03-2.5,0-5,0-7.5,0Zm2.38-4.82c-1.27-1.88-2.92-2.91-5.11-2.84-2.07,.07-3.61,1.1-4.82,2.84h9.93Z"/><path class="cls-1" d="M38.04,10.83c1.62,0,3.25,0,4.87,0,.81,0,1.09,.28,1.1,1.1,0,.75,.01,1.5,0,2.25-.01,.62-.33,.94-.95,.94-3.37,0-6.74,0-10.11,0-.6,0-.92-.3-.94-.89-.03-.83-.03-1.67,0-2.5,.02-.62,.34-.9,.98-.91,1.69,0,3.37,0,5.06,0Z"/></svg>