<svg id="Camada_1" data-name="Camada 1" xmlns="http://www.w3.org/2000/svg" viewBox="0 0 50 50"><defs><style>.cls-1{fill:#000b1d;}</style></defs><path class="cls-1" d="M0,24.82V11.09C0,10,.33,9.63,1.45,9.63c4.17,0,8.34,0,12.51,0a8.44,8.44,0,0,1,8.42,7,7.9,7.9,0,0,1-1,5.58c-.19.32-.14.45.13.68a9.23,9.23,0,0,1,3.29,10c-1,3.91-3.77,6.2-7.71,7a8.5,8.5,0,0,1-1.82.16H1.46C.34,40,0,39.67,0,38.55Zm11,9.61h0c1.55,0,3.09,0,4.64,0a4,4,0,1,0-.07-8c-3.15,0-6.3,0-9.45,0-.45,0-.53.14-.53.55,0,2.3,0,4.6,0,6.9,0,.49.16.56.59.55C7.81,34.42,9.41,34.43,11,34.43Zm-.91-13.69c1.3,0,2.6,0,3.91,0a2.75,2.75,0,1,0,0-5.49c-2.64,0-5.28,0-7.93,0-.35,0-.49.06-.49.46,0,1.52,0,3.05,0,4.57,0,.38.1.49.48.48C7.43,20.73,8.77,20.74,10.11,20.74Z"/><path class="cls-1" d="M40.93,29.8H33.31c-.72,0-.72,0-.49.7a5.91,5.91,0,0,0,7.91,3.78,3.05,3.05,0,0,0,1.08-.66,1.91,1.91,0,0,1,1.64-.57c1.53,0,3,0,4.58,0,.8,0,.94.27.56,1a11.33,11.33,0,0,1-8.65,6.22A11.51,11.51,0,0,1,27.5,32.49a12.08,12.08,0,0,1,7-15.28,11.53,11.53,0,0,1,15.08,8.11A22.74,22.74,0,0,1,50,28.69a1.06,1.06,0,0,1-.9,1.08,3.61,3.61,0,0,1-.66,0ZM43.32,25a5.71,5.71,0,0,0-5.11-2.84A5.9,5.9,0,0,0,33.39,25Z"/><path class="cls-1" d="M38,10.83h4.87c.82,0,1.09.28,1.1,1.1s0,1.5,0,2.25a.85.85,0,0,1-.95.94q-5.06,0-10.11,0a.83.83,0,0,1-.94-.89c0-.83,0-1.66,0-2.49,0-.63.34-.91,1-.91Z"/></svg>