<?xml version="1.0" encoding="UTF-8"?><svg id="Camada_1" xmlns="http://www.w3.org/2000/svg" viewBox="0 0 50 50"><defs><style>.cls-1{fill:#fff;}</style></defs><path class="cls-1" d="M13.39,50c-1.08-.27-2.03-.78-2.49-1.84-.24-.55-.4-1.18-.4-1.78-.02-14.26-.02-28.51-.01-42.77C10.48,1.41,11.93,0,14.15,0c7.23,0,14.45,0,21.68,0,2.3,0,3.72,1.41,3.72,3.71,0,6.53,0,13.05,0,19.58,0,7.66,0,15.33,0,22.99,0,1.51-.57,2.69-1.95,3.38-.3,.15-.64,.23-.96,.34H13.39Zm23.77-6.26V5.4H12.86V43.74h24.29Zm-10.47,2.9c0-.93-.73-1.68-1.65-1.7-.92-.02-1.68,.73-1.7,1.65-.02,.95,.73,1.73,1.67,1.73,.92,0,1.67-.75,1.68-1.68ZM24.96,3.24c1.14,0,2.27,0,3.41,0,.29,0,.59-.03,.59-.4,0-.37-.29-.41-.59-.41-2.24,0-4.48,0-6.72,0-.3,0-.59,.04-.59,.41,0,.38,.3,.4,.59,.4,1.1,0,2.21,0,3.31,0Z"/></svg>