<svg id="Camada_1" data-name="Camada 1" xmlns="http://www.w3.org/2000/svg" viewBox="0 0 50 50"><defs><style>.cls-1{fill:#6b3cc3;}</style></defs><path class="cls-1" d="M40.2,50H9.79l-.08,0A4.41,4.41,0,0,1,6,45.15V4.46A4.15,4.15,0,0,1,7.85.84,10.52,10.52,0,0,1,9.79,0H31.23a13.4,13.4,0,0,1,1.09.87c3.67,3.67,7.32,7.34,11,11A2.25,2.25,0,0,1,44,13.56c0,5.13,0,10.26,0,15.38,0,5.52,0,11,0,16.55a4.39,4.39,0,0,1-2.92,4.25C40.79,49.84,40.49,49.91,40.2,50ZM29.38,2.93H10.67A1.53,1.53,0,0,0,8.91,4.69V45.31a1.53,1.53,0,0,0,1.76,1.76H39.32c1.21,0,1.76-.55,1.76-1.75V14.65h-.6c-2.25,0-4.51,0-6.77,0a4.34,4.34,0,0,1-4.17-3.27A5.53,5.53,0,0,1,29.39,10C29.37,7.68,29.38,5.34,29.38,2.93Zm2.95,2.22s0,0,0,.08c0,1.63,0,3.25,0,4.88a1.48,1.48,0,0,0,1.6,1.61h4.57l.39,0Z"/><path class="cls-1" d="M26.46,23.63h7.21a1.45,1.45,0,0,1,1.42,2.06,1.51,1.51,0,0,1-1.51.87H22c-.89,0-1.79,0-2.68,0a1.47,1.47,0,1,1,0-2.93Z"/><path class="cls-1" d="M26.46,32.42H19.25a1.46,1.46,0,0,1-1.4-2.11,1.5,1.5,0,0,1,1.48-.82c4,0,8,0,11.92,0h2.34a1.47,1.47,0,1,1,0,2.93Z"/><path class="cls-1" d="M26.46,38.28H19.35a1.48,1.48,0,1,1,0-2.93H33.64a1.47,1.47,0,1,1,0,2.93Z"/><path class="cls-1" d="M14.76,25.1a1.46,1.46,0,1,1-1.45-1.47A1.48,1.48,0,0,1,14.76,25.1Z"/><path class="cls-1" d="M14.76,30.93a1.46,1.46,0,1,1-1.47-1.44A1.49,1.49,0,0,1,14.76,30.93Z"/><path class="cls-1" d="M13.29,38.28a1.47,1.47,0,1,1,1.47-1.44A1.48,1.48,0,0,1,13.29,38.28Z"/></svg>