<svg id="Camada_1" data-name="Camada 1" xmlns="http://www.w3.org/2000/svg" viewBox="0 0 50 50"><defs><style>.cls-1{fill:#191d20;}</style></defs><path class="cls-1" d="M50,26.86c-.09.79-.17,1.58-.28,2.36A24.15,24.15,0,0,1,46.12,39a24.56,24.56,0,0,1-9.35,8.72,33.71,33.71,0,0,1-3.7,1.62c-1.09.42-1.86-.16-1.86-1.36,0-2.15,0-4.29,0-6.44a7.47,7.47,0,0,0-.68-3.46,16.53,16.53,0,0,0-.9-1.4c.88-.16,1.78-.28,2.66-.48a10.64,10.64,0,0,0,6.3-3.7,10.82,10.82,0,0,0,2.08-5.09,15.89,15.89,0,0,0,.13-4.62A9.09,9.09,0,0,0,38.7,18a.87.87,0,0,1-.17-.91,9,9,0,0,0-.35-5.92.61.61,0,0,0-.54-.25,10.3,10.3,0,0,0-2.37.5c-1.25.54-2.42,1.25-3.63,1.86a1.28,1.28,0,0,1-.81.13,24.33,24.33,0,0,0-11.69,0,1.12,1.12,0,0,1-.76-.12,15.87,15.87,0,0,0-4.55-2.17,10.65,10.65,0,0,0-1.59-.21c-.25,0-.4.11-.49.37a9.37,9.37,0,0,0-.23,6,.66.66,0,0,1-.1.51c-2.12,2.45-2.6,5.34-2.28,8.45a14.09,14.09,0,0,0,1.14,4.47,9.36,9.36,0,0,0,5.24,4.84,17.45,17.45,0,0,0,4.34,1.07l.43.08c-.34.59-.7,1.16-1,1.76a3,3,0,0,0-.3,1,1,1,0,0,1-.79.9,5.55,5.55,0,0,1-4.58-.22,5.41,5.41,0,0,1-1.91-1.92A6,6,0,0,0,9.56,36a3.29,3.29,0,0,0-2.32-.52.84.84,0,0,0-.57.35c-.06.13.13.4.26.57a1.76,1.76,0,0,0,.49.41,7.48,7.48,0,0,1,2.9,3.75,5.74,5.74,0,0,0,5.4,3.67,28.34,28.34,0,0,0,3-.15.76.76,0,0,1,0,.18c0,1.25,0,2.51,0,3.76s-.79,1.75-2,1.33a24.75,24.75,0,0,1-14-12.12A24,24,0,0,1,.08,23.88,24.53,24.53,0,0,1,11.79,4.34,23.24,23.24,0,0,1,28.31.79C38.57,2.39,45.36,8.27,48.82,18a21.11,21.11,0,0,1,1.09,5.63,4,4,0,0,0,.09.48Z"/></svg>