<?xml version="1.0" encoding="UTF-8"?><svg id="Camada_1" xmlns="http://www.w3.org/2000/svg" viewBox="0 0 50 50"><defs><style>.cls-1{fill:#efefef;}</style></defs><path class="cls-1" d="M50,26.86c-.09,.79-.17,1.58-.28,2.36-.49,3.53-1.7,6.8-3.6,9.81-2.35,3.72-5.46,6.65-9.35,8.72-1.19,.63-2.44,1.14-3.7,1.62-1.09,.42-1.86-.17-1.86-1.36,0-2.15,.02-4.3,.03-6.45,0-1.2-.13-2.38-.68-3.46-.25-.48-.58-.92-.89-1.4,.87-.16,1.77-.28,2.65-.48,2.48-.57,4.69-1.63,6.31-3.7,1.17-1.5,1.78-3.24,2.08-5.09,.25-1.53,.33-3.07,.13-4.62-.24-1.82-.95-3.44-2.13-4.84-.25-.3-.28-.54-.17-.91,.6-2.01,.38-3.99-.36-5.92-.05-.14-.37-.28-.54-.25-.8,.13-1.64,.19-2.37,.5-1.25,.53-2.42,1.25-3.64,1.86-.23,.12-.56,.18-.8,.12-3.9-.95-7.79-.94-11.69,0-.23,.06-.55,0-.76-.13-1.44-.9-2.89-1.76-4.56-2.17-.52-.13-1.06-.16-1.59-.21-.25-.02-.4,.1-.49,.37-.68,1.99-.88,3.99-.23,6.03,.05,.15,0,.39-.09,.51-2.12,2.45-2.6,5.34-2.28,8.45,.16,1.55,.48,3.05,1.14,4.47,1.08,2.33,2.88,3.89,5.24,4.85,1.4,.57,2.86,.87,4.34,1.07,.16,.02,.32,.06,.43,.08-.34,.6-.7,1.17-1,1.76-.15,.3-.26,.64-.3,.97-.05,.52-.32,.75-.79,.89-1.56,.48-3.09,.62-4.58-.22-.81-.46-1.43-1.13-1.91-1.92-.55-.9-1.22-1.69-2.15-2.22-.72-.4-1.48-.69-2.33-.52-.21,.04-.49,.19-.57,.36-.06,.13,.14,.4,.27,.57,.13,.16,.3,.3,.48,.41,1.44,.89,2.28,2.24,2.91,3.75,.99,2.41,2.89,3.52,5.39,3.67,.98,.06,1.97-.09,3.01-.15,0,0,.03,.1,.03,.18,.02,1.25,.04,2.51,.04,3.76,0,1.22-.79,1.75-1.96,1.33-6.23-2.23-10.92-6.28-14-12.13C.64,33.05-.3,28.58,.08,23.88,.77,15.45,4.7,8.9,11.79,4.34,16.82,1.11,22.41-.13,28.31,.79c10.26,1.6,17.05,7.48,20.5,17.23,.64,1.81,.97,3.71,1.1,5.63,.01,.16,.06,.32,.09,.47v2.73Z"/></svg>