<svg id="Camada_1" data-name="Camada 1" xmlns="http://www.w3.org/2000/svg" viewBox="0 0 50 50"><defs><style>.cls-1{fill:#a31396;}</style></defs><path class="cls-1" d="M25,50H13.9A13.65,13.65,0,0,1,.29,39,13.46,13.46,0,0,1,0,36.2c0-7.45,0-14.9,0-22.36A13.66,13.66,0,0,1,11,.29,13.46,13.46,0,0,1,13.8,0H36.16A13.76,13.76,0,0,1,50,14c0,7.35,0,14.71,0,22.07a13.65,13.65,0,0,1-8.83,13,13.84,13.84,0,0,1-5,.89ZM25.7,4.39H16.08a11.67,11.67,0,0,0-1.87.11A11.34,11.34,0,0,0,4.39,15.81q-.06,9.18,0,18.37A11.36,11.36,0,0,0,16,45.63H34a11.17,11.17,0,0,0,3.15-.41C42.8,43.58,45.6,39,45.69,33.65c.09-5.84,0-11.68,0-17.51a14.72,14.72,0,0,0-.19-2.39A11.37,11.37,0,0,0,35.3,4.45C31.88,4.27,28.46,4.43,25.7,4.39Z"/><path class="cls-1" d="M37.66,24.88a13,13,0,0,1-12.78,13,12.9,12.9,0,0,1,.19-25.79A12.74,12.74,0,0,1,37.66,24.88ZM24.82,33.47a8.47,8.47,0,1,0-8.4-8.66A8.51,8.51,0,0,0,24.82,33.47Z"/><path class="cls-1" d="M35.48,11.52a3.12,3.12,0,0,1,3.08-3.09,2.9,2.9,0,0,1,2.91,3.05,3,3,0,1,1-6,0Z"/></svg>