<svg id="Camada_1" data-name="Camada 1" xmlns="http://www.w3.org/2000/svg" viewBox="0 0 50 50"><defs><style>.cls-1{fill:#0a66c2;}</style></defs><path class="cls-1" d="M28.06,50H17.74V16.69h9.87v4.49c.13-.08.2-.1.22-.14a10.78,10.78,0,0,1,9.46-5.17,14.23,14.23,0,0,1,6.65,1.2,9.61,9.61,0,0,1,5.11,6.35A24.58,24.58,0,0,1,50,30.29c0,6.42,0,12.85,0,19.27,0,.1,0,.2,0,.34H39.63v-.69c0-5.45,0-10.9,0-16.35a21.75,21.75,0,0,0-.33-3.7c-.63-3.41-2.85-4.57-6-4.2-2.9.35-4.49,2-4.94,5.17a25.15,25.15,0,0,0-.24,3.46c0,5.21,0,10.42,0,15.62Z"/><path class="cls-1" d="M.86,16.68h10.3V50H.86Z"/><path class="cls-1" d="M12,6A6,6,0,0,1,6,12.09,6,6,0,0,1,6,0,6,6,0,0,1,12,6Z"/></svg>