<svg id="Camada_1" data-name="Camada 1" xmlns="http://www.w3.org/2000/svg" viewBox="0 0 50 50"><defs><style>.cls-1{fill:#dc4337;}</style></defs><path class="cls-1" d="M37.11,0l6.8,6.59a1,1,0,0,1,.35.81q0,21,0,42.1V50H5.77c0-.15,0-.29,0-.43V.24a1.93,1.93,0,0,1,0-.24Zm-28,3.35V46.67H40.88V8.58H35.36V3.35Z"/><path class="cls-1" d="M21.16,31.53V22h4.69a4,4,0,0,1,4.31,3.75A6.23,6.23,0,0,1,29.81,29a3.58,3.58,0,0,1-3.11,2.35C24.88,31.51,23,31.47,21.16,31.53ZM24.09,29c1.12,0,2.25.22,2.91-1a2.92,2.92,0,0,0-.18-2.91,2.68,2.68,0,0,0-2.73-.65Z"/><path class="cls-1" d="M14.68,28.54v2.9H11.79V22c1.89,0,3.76-.09,5.62,0a3,3,0,0,1,2.73,3.21,3.08,3.08,0,0,1-2.95,3.26C16.38,28.6,15.57,28.54,14.68,28.54Zm0-2.16c.7-.05,1.38-.07,2-.18.47-.07.61-.48.6-.92s-.19-.75-.64-.79c-.66-.06-1.34-.07-2-.1Z"/><path class="cls-1" d="M31.54,22h7.29v2.4H34.48v1.2H38.2v2.24H34.45v3.62H31.54Z"/></svg>