<svg id="Camada_1" data-name="Camada 1" xmlns="http://www.w3.org/2000/svg" viewBox="0 0 50 50"><defs><style>.cls-1{fill:#2cb742;}</style></defs><path class="cls-1" d="M23.92,0h3a2.49,2.49,0,0,0,.37.09A23.72,23.72,0,0,1,38.91,4a24,24,0,0,1,10.7,16.15c.17.89.26,1.79.39,2.69v3c0,.32-.08.63-.12,1a23.6,23.6,0,0,1-4.6,11.85,24.14,24.14,0,0,1-18.66,10,23.6,23.6,0,0,1-12.3-2.62A1.31,1.31,0,0,0,13.26,46L1.14,49.89c-.33.1-.66.21-.95-.09S0,49.18.13,48.85C1.44,45,2.74,41.13,4.06,37.27A1.2,1.2,0,0,0,4,36.18C.31,29.37-.25,22.3,2.75,15.17,6.19,7,12.44,2.13,21.13.4,22.05.21,23,.13,23.92,0ZM7.69,42.45l.46-.12c1.92-.61,3.84-1.21,5.76-1.84a1.17,1.17,0,0,1,1.06.13,22.5,22.5,0,0,0,2,1.13,19.18,19.18,0,0,0,14.34,1,19,19,0,0,0,8.72-5.69A18.89,18.89,0,0,0,44.8,26.2a18.59,18.59,0,0,0-2.9-12A19.14,19.14,0,0,0,30.64,5.8,18.89,18.89,0,0,0,19.72,6a19.12,19.12,0,0,0-8.9,5.74A19.06,19.06,0,0,0,9.46,35.33a1.43,1.43,0,0,1,.18,1.41C9,38.61,8.36,40.49,7.69,42.45Z"/><path class="cls-1" d="M32.12,36.09a14.33,14.33,0,0,1-4.08-.8c-5.43-1.64-9.28-5.27-12.43-9.8a12.28,12.28,0,0,1-2.36-5.18,7.12,7.12,0,0,1,1.61-6.06,4.27,4.27,0,0,1,2.53-1.14A9.29,9.29,0,0,1,18.88,13a1.39,1.39,0,0,1,1.3.9q1.13,2.5,2.16,5.06a2.06,2.06,0,0,1-.48,2c-.35.5-.8.94-1.17,1.43a.56.56,0,0,0-.08.49,18.09,18.09,0,0,0,7.53,6.52.56.56,0,0,0,.81-.21c.53-.68,1.08-1.34,1.63-2a1.41,1.41,0,0,1,1.85-.52c.73.27,1.43.61,2.14.95,1,.46,1.92.94,2.89,1.41a1.35,1.35,0,0,1,.77,1.25c.18,3.68-2.78,5.55-5.41,5.82Z"/></svg>