<svg id="Camada_1" data-name="Camada 1" xmlns="http://www.w3.org/2000/svg" viewBox="0 0 167.11 300"><defs><style>.cls-1{fill:#300559;}</style></defs><path class="cls-1" d="M26.76,196.92C205.78,139.49,162.52,0,162.52,0,113.29,125.32,26.76,196.92,26.76,196.92Z"/><path class="cls-1" d="M164.83,133.52c-66.46,57.19-138.07,72.1-138.07,72.1C147.32,227,164.83,133.52,164.83,133.52Z"/><path class="cls-1" d="M131.82,206.27c-56.57,17.84-105.06,8-105.06,8C96,259.72,131.82,206.27,131.82,206.27Z"/><path class="cls-1" d="M94.42,247.12C54.25,242.57,26.76,223,26.76,223,57.32,270.5,94.42,247.12,94.42,247.12Z"/><path class="cls-1" d="M136.7,194.42V243.7l0,0L117.15,255l-10.35,6-9.18,5.31L78.13,277.5l0,0L58.57,266.23,49.45,261l-10.4-6L19.55,243.7v-2.28h0V209.25l.14-.05-.14,0V124.28H80.89c4.6-6,9.41-12.51,14.31-19.53H0v78.1H0v72L10.52,261l9,5.18,19.53,11.28,5.31,3.06,14.21,8.22L78.1,300l.06,0,19.46-11.25L112,280.47l5.19-3,19.52-11.25,9.12-5.28,10.4-6V174.17c-.7,1-1.42,1.91-2.18,2.87A102.78,102.78,0,0,1,136.7,194.42Z"/><polygon class="cls-1" points="147.59 300 167.12 300 167.12 280.47 147.59 300"/></svg>